<svg xmlns="http://www.w3.org/2000/svg" width="16" height="16" viewBox="0 0 16 16"><path d="M13.369 6.506A5.51 5.51 0 0 0 2.69 4.59H1.199a.2.2 0 0 0-.169.305L3.4 8.706a.198.198 0 0 0 .337 0l2.37-3.811a.2.2 0 0 0-.169-.305H4.45a3.91 3.91 0 0 0 7.32 1.916V8.8h1.6zM14.935 10c.074 0 .133.06.133.133v4.734c0 .073-.06.133-.133.133h-4.733a.133.133 0 0 1-.133-.133v-4.734a.133.133 0 0 1 .133-.133zM5.935 10c.074 0 .134.06.134.133v4.734c0 .073-.06.133-.134.133H1.202a.133.133 0 0 1-.133-.133v-4.734c0-.073.06-.133.133-.133z"/></svg>
