<svg width="16" height="16" fill="currentColor" viewBox="0 0 16 16"><path fill="currentColor" d="m12.355 13.485 1.455 1.456a.2.2 0 0 0 .286 0l.848-.848a.2.2 0 0 0 0-.286L13.49 12.35l-.003-.003a6.97 6.97 0 0 0 1.468-3.54.196.196 0 0 0-.152-.213l-1.292-.298a.102.102 0 0 0-.124.093 5.37 5.37 0 0 1-1.041 2.817l-7.55-7.55-.002-.002A5.38 5.38 0 0 1 8 2.6c1.492 0 2.843.605 3.82 1.584l-.937.937a.2.2 0 0 0 .097.336l3.933.908a.2.2 0 0 0 .24-.24l-.908-3.933a.2.2 0 0 0-.336-.096l-.275.275-.682.682A6.98 6.98 0 0 0 8 1a6.97 6.97 0 0 0-4.348 1.514L2.193 1.056a.2.2 0 0 0-.286 0l-.848.848a.2.2 0 0 0 0 .286l1.458 1.458a6.97 6.97 0 0 0-1.47 3.544c-.012.099.054.19.151.213l1.292.298c.06.014.12-.03.124-.093A5.37 5.37 0 0 1 3.658 4.79l.002.002 7.551 7.55A5.38 5.38 0 0 1 8 13.4a5.38 5.38 0 0 1-3.823-1.586l.94-.94a.2.2 0 0 0-.096-.337L1.088 9.63a.2.2 0 0 0-.24.24l.908 3.932a.2.2 0 0 0 .336.097l.275-.276.678-.678A6.98 6.98 0 0 0 8 15a6.97 6.97 0 0 0 4.352-1.517z"/></svg>