<svg width="24" height="24" fill="currentColor" viewBox="0 0 24 24"><g fill="currentColor"><path d="m20.443 3.55.413-.413a.3.3 0 0 0-.144-.504l-5.9-1.361a.3.3 0 0 0-.36.36l1.362 5.899a.3.3 0 0 0 .505.144l1.405-1.405a8.1 8.1 0 0 1-5.14 13.81.153.153 0 0 0-.138.185l.447 1.938c.034.146.17.245.32.228 5.227-.601 9.287-5.042 9.287-10.43 0-2.902-1.177-5.529-3.08-7.429zM3.566 20.45l-.414.413a.3.3 0 0 0 .145.504l5.899 1.361a.3.3 0 0 0 .36-.36L8.194 16.47a.3.3 0 0 0-.504-.144l-1.41 1.41a8.1 8.1 0 0 1 5.136-13.814.153.153 0 0 0 .138-.185l-.447-1.938a.295.295 0 0 0-.32-.228C5.56 2.17 1.5 6.61 1.5 12c0 2.904 1.178 5.532 3.083 7.433z"/></g></svg>