<svg width="16" height="16" fill="currentColor" viewBox="0 0 16 16"><g fill="currentColor"><path d="M12.865 5.661h.002q.103.21.184.429c.044.116.18.17.29.111l1.06-.576a.196.196 0 0 0 .09-.245 6.97 6.97 0 0 0-2.99-3.44 7.004 7.004 0 0 0-9.565 2.562l-.824-.476-.337-.195a.2.2 0 0 0-.3.18l.142 4.034a.2.2 0 0 0 .293.17L4.474 6.32a.2.2 0 0 0 .006-.35l-1.156-.667v-.001a5.4 5.4 0 0 1 6.101-2.51 5.4 5.4 0 0 1 3.44 2.87M12.674 10.7a5.4 5.4 0 0 1-6.1 2.51 5.4 5.4 0 0 1-3.441-2.87H3.13a5 5 0 0 1-.183-.427.207.207 0 0 0-.29-.112l-1.06.576a.196.196 0 0 0-.09.245 6.97 6.97 0 0 0 2.99 3.441 7.003 7.003 0 0 0 9.565-2.562l.824.475.337.195a.2.2 0 0 0 .3-.18l-.141-4.033a.2.2 0 0 0-.294-.17l-3.564 1.895a.2.2 0 0 0-.006.35z"/><path d="M6.988 4.366a.1.1 0 0 0-.091.067L5.522 8.596a.097.097 0 0 0 .09.128h2.266l-.845 2.986c-.028.098.095.167.163.091l3.896-4.368a.097.097 0 0 0-.071-.162H8.714l1.034-2.774a.097.097 0 0 0-.09-.13z"/></g></svg>