<svg width="24" height="24" viewBox="0 0 24 24"><path d="m18.533 20.228 2.183 2.183c.118.118.31.118.429 0l1.272-1.272a.303.303 0 0 0 0-.43l-2.184-2.183-.004-.004a10.45 10.45 0 0 0 2.202-5.31.295.295 0 0 0-.228-.32l-1.938-.447a.153.153 0 0 0-.186.14 8.06 8.06 0 0 1-1.562 4.225L7.193 5.486l-.004-.004A8.06 8.06 0 0 1 12 3.9c2.238 0 4.265.908 5.73 2.375l-1.405 1.406a.3.3 0 0 0 .145.504l5.899 1.362a.3.3 0 0 0 .36-.36l-1.362-5.9a.3.3 0 0 0-.504-.144l-.413.414-1.022 1.022A10.47 10.47 0 0 0 12 1.499c-2.465 0-4.731.85-6.522 2.272L3.29 1.583a.303.303 0 0 0-.429 0L1.589 2.855a.303.303 0 0 0 0 .429L3.776 5.47a10.45 10.45 0 0 0-2.207 5.316.294.294 0 0 0 .228.32l1.938.447a.153.153 0 0 0 .186-.14 8.06 8.06 0 0 1 1.566-4.232l.004.004 11.326 11.326A8.06 8.06 0 0 1 12 20.1c-2.24 0-4.268-.91-5.735-2.38l1.41-1.41a.3.3 0 0 0-.144-.505l-5.9-1.361a.3.3 0 0 0-.359.36l1.361 5.899a.3.3 0 0 0 .505.145l.413-.414 1.017-1.017A10.47 10.47 0 0 0 12 22.5c2.468 0 4.736-.852 6.529-2.276z"/></svg>