<svg width="16" height="16" fill="currentColor" viewBox="0 0 16 16"><g fill="currentColor"><path d="m13.629 2.366.275-.275a.2.2 0 0 0-.096-.336L9.875.847a.2.2 0 0 0-.24.24l.908 3.933a.2.2 0 0 0 .336.097l.937-.938a5.4 5.4 0 0 1-3.426 9.207.102.102 0 0 0-.093.124l.298 1.292a.196.196 0 0 0 .213.152 7.001 7.001 0 0 0 4.14-11.906zM2.377 13.633l-.276.275a.2.2 0 0 0 .097.336l3.933.908a.2.2 0 0 0 .24-.24l-.908-3.933a.2.2 0 0 0-.336-.096l-.94.94a5.4 5.4 0 0 1 3.424-9.21.102.102 0 0 0 .092-.123l-.298-1.292a.196.196 0 0 0-.213-.152 7.001 7.001 0 0 0-4.137 11.909z"/></g></svg>