<svg width="16" height="16" viewBox="0 0 16 16"><path d="M9 13.307v.002q-.23.044-.462.067a.207.207 0 0 0-.183.252l.282 1.173a.196.196 0 0 0 .214.15 6.97 6.97 0 0 0 3.5-1.466l1.456 1.456a.2.2 0 0 0 .286 0l.848-.848a.2.2 0 0 0 0-.286l-1.456-1.456q.312-.392.559-.816A7 7 0 0 0 12.95 3.05l.671-.672.276-.275a.2.2 0 0 0-.096-.336L9.868.859a.2.2 0 0 0-.24.24l.908 3.933a.2.2 0 0 0 .336.096l.944-.944a5.4 5.4 0 0 1 .528 7.026L4.79 3.657A5.4 5.4 0 0 1 7 2.695v-.002q.23-.043.46-.066a.207.207 0 0 0 .183-.252l-.281-1.173a.196.196 0 0 0-.214-.15 6.97 6.97 0 0 0-3.499 1.463l-1.46-1.46a.2.2 0 0 0-.285 0l-.848.849a.2.2 0 0 0 0 .286l1.46 1.46a7.004 7.004 0 0 0 .534 9.303l-.673.672-.276.275a.2.2 0 0 0 .097.336l3.933.908a.2.2 0 0 0 .24-.24l-.908-3.933a.2.2 0 0 0-.336-.097l-.945.945a5.4 5.4 0 0 1-.525-7.028l7.553 7.553a5.4 5.4 0 0 1-2.21.963"/></svg>