<svg width="24" height="24" fill="currentColor" viewBox="0 0 24 24"><path fill="currentColor" d="M13.5 19.96v.004q-.344.065-.693.1a.31.31 0 0 0-.274.377l.422 1.76a.294.294 0 0 0 .32.226 10.45 10.45 0 0 0 5.252-2.199l2.183 2.183c.119.119.31.119.429 0l1.272-1.272a.303.303 0 0 0 0-.429l-2.184-2.184q.468-.588.839-1.224c2.356-4.022 1.809-9.277-1.642-12.727l1.008-1.008.414-.413a.3.3 0 0 0-.145-.504l-5.9-1.361a.3.3 0 0 0-.36.36l1.362 5.899a.3.3 0 0 0 .505.144l1.416-1.417.001.002a8.1 8.1 0 0 1 .79 10.537L7.187 5.486A8.05 8.05 0 0 1 10.5 4.043v-.004q.344-.065.69-.099a.31.31 0 0 0 .275-.377l-.423-1.76a.294.294 0 0 0-.32-.225c-1.872.228-3.695.96-5.248 2.195l-2.19-2.19a.303.303 0 0 0-.429 0L1.583 2.855a.303.303 0 0 0 0 .43l2.19 2.19q-.47.59-.841 1.227c-2.356 4.022-1.809 9.277 1.641 12.727l-1.007 1.008-.414.413a.3.3 0 0 0 .145.504l5.899 1.361a.3.3 0 0 0 .36-.36l-1.362-5.899a.3.3 0 0 0-.504-.144l-1.417 1.417v-.001a8.1 8.1 0 0 1-.788-10.542l11.33 11.33A8.05 8.05 0 0 1 13.5 19.96"/></svg>