<svg width="16" height="16" fill="currentColor" viewBox="0 0 16 16"><path fill="currentColor" d="M14.941 5.406a.2.2 0 0 0 0-.284L10.633.809a.2.2 0 0 0-.285 0l-.854.855a.2.2 0 0 0 0 .284l2.508 2.51h-10.8A.2.2 0 0 0 1 4.66v1.21c0 .11.09.2.201.2h10.801L9.494 8.58a.2.2 0 0 0 0 .284l.854.855a.2.2 0 0 0 .285 0zm-13.94 4.726c0-.111.09-.201.2-.201h7.651l1.61 1.61h-9.26a.2.2 0 0 1-.202-.2zm11.001 1.41H10.52l2.684-2.687 1.738 1.74a.2.2 0 0 1 0 .283l-4.308 4.313a.2.2 0 0 1-.285 0l-.854-.855a.2.2 0 0 1 0-.284z"/></svg>