<svg width="17" height="17" viewBox="0 0 17 17"><g><path d="M15.48 3.62a.214.214 0 0 1-.213.214H1.276a.214.214 0 0 1-.214-.214V2.338c0-.118.096-.213.214-.213h13.99c.118 0 .214.095.214.213zM15.48 8.214a.214.214 0 0 1-.213.214H1.276a.214.214 0 0 1-.214-.214V6.932c0-.118.096-.213.214-.213h13.99c.118 0 .214.095.214.213zM10.57 11.312H1.287a.214.214 0 0 0-.213.214v1.282c0 .118.095.214.213.214h9.281zM12.18 9.993a.212.212 0 0 0-.335.174v6.62c0 .172.194.273.334.174l4.73-3.31a.212.212 0 0 0 0-.348z"/></g></svg>