<svg width="24" height="24" fill="currentColor" viewBox="0 0 24 24"><path fill="currentColor" d="M6.955 2.057H5.007A2 2 0 0 0 3 4.052v17.953A2 2 0 0 0 5.007 24h13.986A2 2 0 0 0 21 22.005V4.052a2 2 0 0 0-2.007-1.995h-2.007C16.921 1.014 16.046 0 14.98 0H8.96c-1.067 0-1.94 1.014-2.004 2.057m.706 12.176a.993.993 0 0 1 0-1.411l.086-.086a1.01 1.01 0 0 1 1.419 0l1.8 1.789 4.307-4.282a1.01 1.01 0 0 1 1.42 0l.085.085a.993.993 0 0 1 0 1.411l-5.103 5.073c-.392.39-1.027.39-1.42 0zm4.308-11.178a1 1 0 0 1 1.003.997 1 1 0 0 1-1.003.997 1 1 0 0 1-1.004-.997 1 1 0 0 1 1.004-.997"/></svg>