<svg width="24" height="24" fill="currentColor" viewBox="0 0 24 24"><g fill="currentColor"><path d="m20.694 12-4.15-4.035a.29.29 0 0 1 0-.417l1.287-1.251a.31.31 0 0 1 .43 0l5.65 5.494a.29.29 0 0 1 0 .418l-5.65 5.494a.31.31 0 0 1-.43 0l-1.287-1.25a.29.29 0 0 1 0-.418zM9.568 20.701a.296.296 0 0 1-.248-.34l2.974-17.115a.303.303 0 0 1 .35-.242l1.794.295c.165.027.277.18.249.34l-2.975 17.115a.3.3 0 0 1-.35.242zM3.306 12l4.15 4.035a.29.29 0 0 1 0 .417l-1.287 1.251a.31.31 0 0 1-.43 0L.09 12.21a.29.29 0 0 1 0-.418l5.65-5.494a.31.31 0 0 1 .43 0l1.286 1.25a.29.29 0 0 1 0 .418z"/></g></svg>