<svg width="24" height="24" fill="currentColor" viewBox="0 0 24 24"><g fill="currentColor"><path d="M1.5 6.3a1.8 1.8 0 0 0 1.8 1.8h17.4a1.8 1.8 0 0 0 1.8-1.8v-3a1.8 1.8 0 0 0-1.8-1.8H3.3a1.8 1.8 0 0 0-1.8 1.8zm3.556-3a1.5 1.5 0 1 1 0 3 1.5 1.5 0 0 1 0-3m6.3 2.4a.3.3 0 0 1-.3-.3V4.2a.3.3 0 0 1 .3-.3h8.4a.3.3 0 0 1 .3.3v1.2a.3.3 0 0 1-.3.3zM1.5 14.7a1.8 1.8 0 0 0 1.8 1.8h9.246a6.9 6.9 0 0 1 1.513-2.4h-2.703a.3.3 0 0 1-.3-.3v-1.2a.3.3 0 0 1 .3-.3h5.628a7 7 0 0 1 2.046-.308c1.265 0 2.45.34 3.47.932V11.7a1.8 1.8 0 0 0-1.8-1.8H3.3a1.8 1.8 0 0 0-1.8 1.8zm3.556-3a1.5 1.5 0 1 1 0 3 1.5 1.5 0 0 1 0-3"/><path d="M19.828 13.8a.3.3 0 0 1 .3.3v.527c0 .474.322.882.732 1.12s.916.307 1.327.07l.458-.265a.3.3 0 0 1 .41.11l.793 1.373a.3.3 0 0 1-.11.41l-.455.263c-.412.238-.606.716-.606 1.192 0 .475.194.954.605 1.191l.454.262a.3.3 0 0 1 .11.41l-.793 1.373a.3.3 0 0 1-.41.11l-.455-.263c-.411-.237-.918-.168-1.328.07s-.732.646-.732 1.12v.527a.3.3 0 0 1-.3.3h-1.586a.3.3 0 0 1-.3-.3v-.526c0-.475-.323-.883-.733-1.121-.411-.239-.918-.308-1.33-.07l-.455.262a.3.3 0 0 1-.41-.11l-.792-1.373a.3.3 0 0 1 .11-.41l.456-.264c.41-.236.604-.714.604-1.188 0-.475-.194-.952-.604-1.19l-.458-.264a.3.3 0 0 1-.11-.41l.793-1.373a.3.3 0 0 1 .41-.11l.457.264c.411.238.918.168 1.329-.07s.733-.646.733-1.121V14.1a.3.3 0 0 1 .3-.3zm-.793 6.703a1.603 1.603 0 1 0 0-3.206 1.603 1.603 0 0 0 0 3.206"/></g></svg>