<svg width="24" height="24" viewBox="0 0 24 24"><path d="M2.8 1.8A1.8 1.8 0 0 0 1 3.6v2.8a1.8 1.8 0 0 0 1.8 1.8h18.4A1.8 1.8 0 0 0 23 6.4V3.6a1.8 1.8 0 0 0-1.8-1.8zM6 5a1.5 1.5 0 1 1-3 0 1.5 1.5 0 0 1 3 0m5-.7a.3.3 0 0 1 .3-.3h9.4a.3.3 0 0 1 .3.3v1.4a.3.3 0 0 1-.3.3h-9.4a.3.3 0 0 1-.3-.3zM1 12.6a1.8 1.8 0 0 1 1.8-1.8h18.4a1.8 1.8 0 0 1 1.8 1.8v.408a7.07 7.07 0 0 0-4.5-1.608 7.07 7.07 0 0 0-4.49 1.6H11.3a.3.3 0 0 0-.3.3v1.4a.3.3 0 0 0 .3.3h1.021a7 7 0 0 0-.802 2.2H2.8A1.8 1.8 0 0 1 1 15.4zm3.5 2.9a1.5 1.5 0 1 0 0-3 1.5 1.5 0 0 0 0 3m14.82-2.163c.171 0 .31.136.31.304v.533c0 .48.332.893.757 1.134.423.24.946.31 1.37.07l.474-.268a.313.313 0 0 1 .424.112l.819 1.39a.3.3 0 0 1-.114.415l-.47.266c-.425.24-.625.725-.625 1.207 0 .48.2.965.625 1.206l.469.265a.3.3 0 0 1 .113.415l-.82 1.39a.313.313 0 0 1-.422.111l-.471-.266c-.425-.24-.948-.17-1.372.071s-.757.654-.757 1.134v.533a.307.307 0 0 1-.31.304H17.68a.307.307 0 0 1-.31-.304v-.532c0-.48-.333-.894-.757-1.135-.425-.242-.949-.312-1.374-.072l-.47.266a.313.313 0 0 1-.423-.111l-.82-1.39a.3.3 0 0 1 .114-.415l.472-.267c.424-.24.624-.723.624-1.203s-.2-.964-.625-1.204l-.473-.268a.3.3 0 0 1-.113-.415l.82-1.39a.313.313 0 0 1 .423-.111l.472.267c.425.24.949.17 1.373-.071s.758-.654.758-1.135v-.532c0-.168.138-.304.31-.304zm-.82 6.785c.915 0 1.657-.726 1.657-1.622s-.742-1.623-1.656-1.623c-.915 0-1.656.727-1.656 1.623s.741 1.622 1.656 1.622"/></svg>