<svg width="16" height="16" fill="currentColor" viewBox="0 0 16 16"><g fill="currentColor"><path d="M1 4.2a1.2 1.2 0 0 0 1.2 1.2h11.6A1.2 1.2 0 0 0 15 4.2v-2A1.2 1.2 0 0 0 13.8 1H2.2A1.2 1.2 0 0 0 1 2.2zm2.37-2a1 1 0 1 1 0 2 1 1 0 0 1 0-2m4.2 1.6a.2.2 0 0 1-.2-.2v-.8c0-.11.09-.2.2-.2h5.6c.11 0 .2.09.2.2v.8a.2.2 0 0 1-.2.2zM1 9.8A1.2 1.2 0 0 0 2.2 11h6.164a4.6 4.6 0 0 1 1.009-1.6H7.571a.2.2 0 0 1-.2-.2v-.8c0-.11.09-.2.2-.2h3.752c.43-.134.889-.205 1.364-.205a4.6 4.6 0 0 1 2.313.62V7.8a1.2 1.2 0 0 0-1.2-1.2H2.2A1.2 1.2 0 0 0 1 7.8zm2.37-2a1 1 0 1 1 0 2 1 1 0 0 1 0-2"/><path d="M13.218 9.2c.11 0 .2.09.2.2v.351c0 .316.215.588.489.747.273.159.61.205.884.046l.306-.176a.2.2 0 0 1 .273.073l.529.916a.2.2 0 0 1-.073.273l-.304.175c-.275.159-.404.478-.404.795s.13.636.404.794l.302.175a.2.2 0 0 1 .074.273l-.529.916a.2.2 0 0 1-.273.073l-.304-.176c-.274-.158-.612-.112-.885.047-.274.159-.489.43-.489.747v.351a.2.2 0 0 1-.2.2h-1.057a.2.2 0 0 1-.2-.2v-.35c0-.317-.215-.59-.489-.748-.274-.16-.612-.206-.886-.047l-.303.175a.2.2 0 0 1-.273-.073l-.529-.916a.2.2 0 0 1 .073-.273l.305-.176c.273-.158.402-.476.402-.792s-.129-.635-.403-.793l-.305-.176a.2.2 0 0 1-.073-.273l.529-.916a.2.2 0 0 1 .273-.073l.305.176c.274.158.612.112.886-.047.273-.159.488-.43.488-.747V9.4c0-.11.09-.2.2-.2zm-.528 4.469a1.069 1.069 0 1 0 0-2.138 1.069 1.069 0 0 0 0 2.138"/></g></svg>