<svg width="24" height="24" fill="currentColor" viewBox="0 0 24 24"><path fill="currentColor" d="M9.207 11.881a5 5 0 0 1-2.616.736c-2.812 0-5.091-2.32-5.091-5.183S3.78 2.25 6.59 2.25c2.812 0 5.091 2.32 5.091 5.184a5.23 5.23 0 0 1-.856 2.878l4.714 4.8 1.94-1.976a.287.287 0 0 1 .411 0l1.235 1.257a.3.3 0 0 1 0 .419l-1.94 1.976 1.704 1.735 1.88-1.915a.287.287 0 0 1 .412 0l1.234 1.257a.3.3 0 0 1 0 .419l-3.32 3.38a.287.287 0 0 1-.412-.002zm.147-4.447c0-1.555-1.237-2.814-2.763-2.814-1.527 0-2.764 1.26-2.764 2.814s1.237 2.814 2.764 2.814 2.763-1.26 2.763-2.814"/></svg>