<svg width="16" height="16" fill="currentColor" viewBox="0 0 16 16"><path fill="currentColor" d="M6.138 7.92c-.51.312-1.106.491-1.744.491C2.519 8.411 1 6.864 1 4.956S2.52 1.5 4.394 1.5s3.394 1.547 3.394 3.456c0 .71-.21 1.37-.571 1.919l3.142 3.2 1.294-1.317a.19.19 0 0 1 .274 0l.823.837a.2.2 0 0 1 0 .28l-1.294 1.317 1.136 1.157 1.254-1.277a.19.19 0 0 1 .274 0l.823.838a.2.2 0 0 1 0 .28l-2.212 2.252a.19.19 0 0 1-.276 0zm.098-2.964c0-1.036-.825-1.876-1.842-1.876S2.55 3.92 2.55 4.956s.825 1.876 1.843 1.876c1.017 0 1.842-.84 1.842-1.876"/></svg>