<svg width="16" height="16" fill="currentColor" viewBox="0 0 16 16"><path fill="currentColor" d="m8.14 7.015 1.057-1.056a1.195 1.195 0 0 0 0-1.69L6.227 1.3a1.195 1.195 0 0 0-1.69 0L1.299 4.537a1.195 1.195 0 0 0 0 1.69l2.97 2.97a1.195 1.195 0 0 0 1.69 0L7.015 8.14l.844.845-1.056 1.055a1.195 1.195 0 0 0 0 1.69l2.975 2.974a1.195 1.195 0 0 0 1.69 0l3.237-3.238a1.195 1.195 0 0 0 0-1.689l-2.974-2.975a1.194 1.194 0 0 0-1.69 0L8.985 7.86zM2.708 5.382l2.675-2.675 2.407 2.407-.774.774-1.712-1.711-1.126 1.126 1.711 1.712-.774.774zm6.278 4.73 1.527 1.526 1.126-1.126-1.526-1.526.774-.775 2.412 2.412-2.675 2.675-2.412-2.412z"/><g fill="currentColor"><path d="M15 3a2 2 0 1 1-4 0 2 2 0 0 1 4 0"/><path d="M15 3a2 2 0 1 1-4 0 2 2 0 0 1 4 0"/></g></svg>