<svg width="24" height="24" fill="currentColor" viewBox="0 0 24 24"><g fill="currentColor"><path d="m12.211 10.522 1.267 1.267 1.584-1.584c.7-.7 1.834-.7 2.534 0l4.506 4.506c.7.7.7 1.835 0 2.534l-4.857 4.857c-.7.7-1.834.7-2.534 0l-4.506-4.506a1.792 1.792 0 0 1 0-2.534l1.584-1.584-1.267-1.267-1.584 1.584a1.78 1.78 0 0 1-.704.434 1.8 1.8 0 0 1-1.83-.434L1.952 9.343c-.7-.7-.7-1.834 0-2.534l4.856-4.857c.7-.7 1.835-.7 2.534 0l4.453 4.452a1.79 1.79 0 0 1 .518 1.415 1.78 1.78 0 0 1-.518 1.12zm-4.328.95.95-.95-2.356-2.355a.3.3 0 0 1 0-.424l1.265-1.266a.3.3 0 0 1 .425 0l2.355 2.356.949-.95a.3.3 0 0 0 0-.424L8.288 4.276a.3.3 0 0 0-.425 0L4.275 7.864a.3.3 0 0 0 0 .424L7.46 11.47a.3.3 0 0 0 .424 0m4.646 5.07 3.237 3.236a.3.3 0 0 0 .424 0l3.588-3.588a.3.3 0 0 0 0-.424l-3.242-3.242a.293.293 0 0 0-.415 0l-.954.954 2.078 2.078a.3.3 0 0 1 0 .424l-1.265 1.265a.3.3 0 0 1-.424 0l-2.078-2.077-.95.95a.3.3 0 0 0 0 .423M18.869 8.933a3.6 3.6 0 0 0-.567-.462l1.26-1.26a.3.3 0 0 0 0-.424L17.035 4.26a.3.3 0 0 0-.425 0l-1.229 1.229a4 4 0 0 0-.313-.357l-1.354-1.354 1.841-1.842c.7-.7 1.835-.7 2.534 0l3.797 3.796c.7.7.7 1.834 0 2.534l-1.842 1.842zM8.932 18.87a3.6 3.6 0 0 1-.462-.567l-1.243 1.243a.3.3 0 0 1-.424 0L4.275 17.02a.3.3 0 0 1 0-.424l1.213-1.213a4 4 0 0 1-.357-.314l-1.354-1.354-1.825 1.826c-.7.7-.7 1.834 0 2.534l3.796 3.796c.7.7 1.834.7 2.534 0l1.825-1.826z"/></g></svg>