<svg width="16" height="16" fill="currentColor" viewBox="0 0 16 16"><g fill="currentColor"><path d="m8.14 7.015.845.844 1.056-1.056a1.194 1.194 0 0 1 1.69 0l3.004 3.004a1.195 1.195 0 0 1 0 1.69l-3.238 3.238a1.195 1.195 0 0 1-1.69 0L6.803 11.73a1.195 1.195 0 0 1 0-1.69L7.86 8.985l-.844-.844-1.056 1.056a1.2 1.2 0 0 1-.47.29 1.2 1.2 0 0 1-1.22-.29L1.301 6.228a1.195 1.195 0 0 1 0-1.689L4.54 1.301a1.195 1.195 0 0 1 1.69 0L9.196 4.27a1.19 1.19 0 0 1 0 1.69zm-2.885.632.633-.632-1.57-1.57a.2.2 0 0 1 0-.283l.844-.844a.2.2 0 0 1 .282 0l1.57 1.57.633-.632a.2.2 0 0 0 0-.283L5.525 2.85a.2.2 0 0 0-.283 0L2.85 5.242a.2.2 0 0 0 0 .283l2.123 2.122a.2.2 0 0 0 .282 0m3.098 3.38 2.158 2.159a.2.2 0 0 0 .283 0l2.391-2.392a.2.2 0 0 0 0-.283l-2.16-2.162a.196.196 0 0 0-.277 0l-.636.636 1.385 1.386a.2.2 0 0 1 0 .282l-.844.844a.2.2 0 0 1-.283 0l-1.385-1.385-.632.633a.2.2 0 0 0 0 .283M12.58 5.955a2.4 2.4 0 0 0-.378-.308l.84-.84a.2.2 0 0 0 0-.282L11.355 2.84a.2.2 0 0 0-.283 0l-.819.82a2.4 2.4 0 0 0-.209-.239l-.903-.903 1.228-1.227a1.194 1.194 0 0 1 1.69 0l2.53 2.53a1.195 1.195 0 0 1 0 1.69l-1.227 1.227zM5.955 12.58a2.4 2.4 0 0 1-.308-.378l-.829.829a.2.2 0 0 1-.283 0L2.85 11.346a.2.2 0 0 1 0-.283l.809-.809a2.4 2.4 0 0 1-.238-.209l-.903-.902-1.217 1.217a1.194 1.194 0 0 0 0 1.69l2.53 2.53a1.195 1.195 0 0 0 1.69 0l1.217-1.217z"/></g></svg>