<svg width="16" height="16" fill="currentColor" viewBox="0 0 16 16"><g fill="currentColor"><path d="M2.858 5.25a.2.2 0 0 0 0 .284l2.254 2.254.632-.633a.2.2 0 0 1 .283 0L6.87 8a.2.2 0 0 1 0 .283l-.914.914a1.194 1.194 0 0 1-1.689 0L1.31 6.236a1.195 1.195 0 0 1 0-1.688L4.546 1.31a1.194 1.194 0 0 1 1.689 0l2.958 2.959a1.195 1.195 0 0 1 0 1.69l-.914.913a.2.2 0 0 1-.283 0l-.843-.843a.2.2 0 0 1 0-.283l.633-.633L5.532 2.86a.2.2 0 0 0-.283 0zM7.996 9.126a.2.2 0 0 0-.283 0l-.909.91a1.195 1.195 0 0 0 0 1.689l2.976 2.977a1.194 1.194 0 0 0 1.69 0l3.236-3.238a1.195 1.195 0 0 0 0-1.69L11.73 6.798a1.194 1.194 0 0 0-1.689 0l-.92.92a.2.2 0 0 0 0 .283l.844.843a.2.2 0 0 0 .283 0l.637-.638 2.272 2.273a.2.2 0 0 1 0 .283l-2.39 2.392a.2.2 0 0 1-.284 0L8.212 10.88l.627-.628a.2.2 0 0 0 0-.283zM10.001 1.2c0-.11.09-.2.2-.2h.604c.11 0 .2.09.2.2v2.6a.2.2 0 0 1-.2.2H10.2a.2.2 0 0 1-.2-.2zM5.8 15a.2.2 0 0 0 .2-.2v-2.6a.2.2 0 0 0-.2-.2h-.603a.2.2 0 0 0-.2.2v2.6c0 .11.09.2.2.2zM14.8 4.999c.11 0 .2.09.2.2v.6a.2.2 0 0 1-.2.2h-2.6a.2.2 0 0 1-.2-.2v-.6c0-.11.09-.2.2-.2zM1 10.797c0 .11.09.2.2.2h2.6a.2.2 0 0 0 .2-.2v-.595a.2.2 0 0 0-.2-.2H1.2a.2.2 0 0 0-.2.2z"/></g></svg>