<svg width="16" height="16" fill="currentColor" viewBox="0 0 16 16"><g fill="currentColor"><path d="M3 5v2h-.8A1.2 1.2 0 0 0 1 8.2v5.6A1.2 1.2 0 0 0 2.2 15h1.36v-4.42a1.2 1.2 0 0 1 1.2-1.2H13V8.2A1.2 1.2 0 0 0 11.8 7H11V5a4 4 0 1 0-8 0m6.4 0v2H4.6V5a2.4 2.4 0 0 1 4.8 0M11.838 13.583c.002-.46.179-.893.558-1.45l.95-1.409a.2.2 0 0 1 .166-.088h.634a.1.1 0 0 1 .082.157l-.952 1.395c.107-.024.224-.045.343-.045.804 0 1.381.581 1.381 1.42 0 .898-.66 1.497-1.566 1.497-.871 0-1.6-.544-1.596-1.477m.901.009c0 .436.282.747.69.747.403 0 .685-.31.685-.743 0-.437-.286-.744-.684-.744-.41 0-.69.307-.69.74"/><path d="M9.873 15.06c-.82 0-1.438-.444-1.558-1.09-.02-.11.072-.204.184-.204H9c.106 0 .19.085.23.183.096.236.346.386.642.386.433 0 .742-.313.742-.767 0-.458-.316-.775-.755-.778-.257 0-.517.113-.652.295l-.82-.148.19-2.119a.2.2 0 0 1 .2-.182h2.284c.11 0 .2.09.2.2v.355a.2.2 0 0 1-.2.2H9.355l-.113 1.093h.026c.153-.216.484-.375.867-.375.786 0 1.37.6 1.368 1.436.002.882-.658 1.515-1.63 1.515M5 15a.2.2 0 0 1-.2-.2v-.377a.2.2 0 0 1 .064-.147l1.49-1.379c.396-.381.609-.62.609-.967 0-.384-.286-.623-.67-.623-.33 0-.568.176-.638.474-.026.108-.112.2-.223.2h-.475c-.11 0-.201-.09-.188-.2.089-.74.688-1.204 1.531-1.204.935 0 1.553.534 1.553 1.29 0 .497-.24.906-1.137 1.725l-.637.624v.03H7.71c.11 0 .2.09.2.2v.354a.2.2 0 0 1-.2.2z"/></g></svg>