<svg width="16" height="16" fill="currentColor" viewBox="0 0 16 16"><g fill="currentColor"><path d="M3 5v2h-.8A1.2 1.2 0 0 0 1 8.2v5.6A1.2 1.2 0 0 0 2.2 15h.26v-4.055a1.2 1.2 0 0 1 1.2-1.2H13V8.2A1.2 1.2 0 0 0 11.8 7H11V5a4 4 0 1 0-8 0m6.4 0v2H4.6V5a2.4 2.4 0 0 1 4.8 0M15.8 11c.11 0 .2.09.2.2v3.6a.2.2 0 0 1-.2.2h-.446a.2.2 0 0 1-.2-.2v-2.997h-.023l-.763.478a.1.1 0 0 1-.153-.085v-.459a.2.2 0 0 1 .093-.169l.848-.537a.2.2 0 0 1 .107-.031zM11.679 14.862a.2.2 0 0 1-.19.138h-.62a.1.1 0 0 1-.095-.133l1.288-3.732a.2.2 0 0 1 .19-.135h.804a.2.2 0 0 1 .189.135l1.287 3.732a.1.1 0 0 1-.095.133h-.62a.2.2 0 0 1-.19-.138l-.253-.774h-1.443zm.467-1.434h1.015l-.492-1.514h-.031z"/><path d="M7.316 15a.2.2 0 0 1-.2-.2v-3.6c0-.11.09-.2.2-.2h.446c.11 0 .2.09.2.2v1.45h1.717V11.2c0-.11.09-.2.2-.2h.443c.11 0 .2.09.2.2v3.6a.2.2 0 0 1-.2.2H9.88a.2.2 0 0 1-.2-.2v-1.452H7.962V14.8a.2.2 0 0 1-.2.2zM6.138 12.15c-.103 0-.184-.08-.226-.174-.093-.207-.316-.324-.639-.324-.414 0-.642.19-.642.448-.006.287.285.416.633.496l.359.086c.695.156 1.197.51 1.2 1.175-.003.733-.577 1.2-1.553 1.2-.892 0-1.486-.377-1.595-1.108-.016-.112.076-.205.188-.205h.427c.105 0 .188.084.223.183.1.28.38.42.747.42.43 0 .707-.199.709-.492-.002-.27-.244-.394-.68-.5l-.435-.109c-.676-.162-1.092-.5-1.09-1.09-.004-.726.638-1.21 1.515-1.21.804 0 1.36.4 1.469 1.002.02.11-.072.202-.184.202z"/></g></svg>