<svg width="16" height="16" fill="currentColor" viewBox="0 0 16 16"><g fill="currentColor"><path d="M3 5v2h-.8A1.2 1.2 0 0 0 1 8.2v5.6A1.2 1.2 0 0 0 2.2 15h1.07v-4.003a1.2 1.2 0 0 1 1.2-1.2H13V8.2A1.2 1.2 0 0 0 11.8 7H11V5a4 4 0 1 0-8 0m6.4 0v2H4.6V5a2.4 2.4 0 0 1 4.8 0M14.506 15.055c-.745 0-1.308-.4-1.425-.983-.022-.11.07-.203.182-.203h.428c.106 0 .189.085.232.182.092.208.318.34.583.34.396 0 .68-.287.68-.703 0-.42-.29-.711-.692-.713a.8.8 0 0 0-.513.179.26.26 0 0 1-.207.068l-.45-.08a.2.2 0 0 1-.163-.215l.157-1.745a.2.2 0 0 1 .199-.182h2.062c.11 0 .2.09.2.2v.291a.2.2 0 0 1-.2.2h-1.548l-.103 1.002h.023c.14-.197.444-.343.795-.343.72 0 1.256.55 1.254 1.316.002.809-.604 1.389-1.494 1.389"/><path d="M10.705 15H9.487a.2.2 0 0 1-.2-.2v-3.6c0-.11.09-.2.2-.2h1.23c1.207 0 1.945.75 1.945 1.996 0 1.25-.738 2.004-1.957 2.004m-.572-.725h.537c.752 0 1.148-.386 1.148-1.279 0-.889-.396-1.271-1.146-1.271h-.54zM4.303 11.2c0-.11.09-.2.2-.2h.709a.2.2 0 0 1 .185.124l1.05 2.563h.048l1.05-2.563A.2.2 0 0 1 7.73 11h.71c.11 0 .2.09.2.2v3.6a.2.2 0 0 1-.2.2h-.421a.2.2 0 0 1-.2-.2v-2.404h-.033L6.8 14.856a.2.2 0 0 1-.186.125h-.288a.2.2 0 0 1-.185-.125l-.985-2.468h-.034V14.8a.2.2 0 0 1-.2.2h-.42a.2.2 0 0 1-.2-.2z"/></g></svg>