<svg width="24" height="24" viewBox="0 0 24 24"><g><path d="M21.461 23.162a.3.3 0 0 0 .425 0l1.276-1.276a.3.3 0 0 0 0-.425l-6.773-6.773a6.7 6.7 0 0 0-.508-1.201l5.12-2.87a1.81 1.81 0 0 0 .394-2.858l-5.15-5.151a1.81 1.81 0 0 0-2.86.394l-2.87 5.121a6.7 6.7 0 0 0-1.198-.507L2.54.838a.3.3 0 0 0-.425 0L.838 2.114a.3.3 0 0 0 0 .425zM3.793 8.045 15.956 20.21a7.7 7.7 0 0 1-1.293 1.916.287.287 0 0 1-.416.007L8.9 16.807l-5.197 5.197a.3.3 0 0 1-.163.084l-1.74.284a.15.15 0 0 1-.17-.172l.283-1.739a.3.3 0 0 1 .084-.163L7.193 15.1 1.865 9.756a.287.287 0 0 1 .007-.416 7.7 7.7 0 0 1 1.92-1.295"/></g></svg>