<svg width="24" height="24" viewBox="0 0 24 24"><path d="M1.282 6.86a1.014 1.014 0 0 1 1.003-1.012l1.665-.141L.812 2.606a.99.99 0 0 1-.008-1.41 1.01 1.01 0 0 1 1.422-.005l3.138 3.101.14-1.663c.003-.551.456-1 1.012-1.004a.985.985 0 0 1 1 .992L7.491 6.83a1.01 1.01 0 0 1-1.004 1.003l-4.214.026a.987.987 0 0 1-.991-1m1.003 11.292c-.55-.003-1-.453-1.003-1.012a.987.987 0 0 1 .991-1l4.214.025a1.011 1.011 0 0 1 1.004 1.004l.025 4.214a.985.985 0 0 1-1 .991 1.017 1.017 0 0 1-1.012-1.003l-.14-1.664-3.138 3.101a1.01 1.01 0 0 1-1.422-.005.99.99 0 0 1 .008-1.409l3.138-3.101zm19.43 0c.55-.003 1-.453 1.003-1.012a.987.987 0 0 0-.991-1l-4.214.025a1.011 1.011 0 0 0-1.004 1.004l-.025 4.214a.985.985 0 0 0 1 .991 1.017 1.017 0 0 0 1.012-1.003l.14-1.664 3.138 3.101a1.01 1.01 0 0 0 1.422-.005.99.99 0 0 0-.008-1.409l-3.138-3.101zm0-12.304c.55.003 1 .452 1.003 1.012a.987.987 0 0 1-.991 1l-4.214-.026a1.011 1.011 0 0 1-1.004-1.004l-.025-4.213a.985.985 0 0 1 1-.992 1.017 1.017 0 0 1 1.012 1.004l.14 1.663 3.138-3.1a1.01 1.01 0 0 1 1.422.004.99.99 0 0 1-.008 1.41l-3.138 3.1zM9.879 7.049a3 3 0 0 1 4.243 0l2.828 2.829a3 3 0 0 1 0 4.242l-2.828 2.829a3 3 0 0 1-4.243 0L7.051 14.12a3 3 0 0 1 0-4.242zm2.828 1.415a1 1 0 0 0-1.414 0l-2.828 2.828a1 1 0 0 0 0 1.414l2.828 2.829a1 1 0 0 0 1.414 0l2.829-2.829a1 1 0 0 0 0-1.414zM13 11.999a1 1 0 1 1-2 0 1 1 0 0 1 2 0"/></svg>