<svg width="16" height="16" fill="currentColor" viewBox="0 0 16 16"><g fill="currentColor"><path d="M14.572 3.408c0 .111-.09.201-.201.201H1.2A.2.2 0 0 1 1 3.408V2.2c0-.11.09-.201.201-.201h13.17c.11 0 .2.09.2.201zM14.572 7.732c0 .111-.09.201-.201.201H1.2a.2.2 0 0 1-.201-.2V6.524c0-.11.09-.2.201-.2h13.17c.11 0 .2.09.2.2zM13.366 11.805a1.558 1.558 0 1 0-3.117-.001 1.558 1.558 0 0 0 3.117.001m-.077 2.335a2.765 2.765 0 0 1-4.245-2.335 2.765 2.765 0 1 1 5.098 1.482l1.8 1.8a.2.2 0 0 1 0 .285l-.57.57a.2.2 0 0 1-.284 0zM8.01 10.649H1.2a.2.2 0 0 0-.201.2v1.207c0 .112.09.202.201.202h6.663a4 4 0 0 1 .145-1.61"/></g></svg>