<svg width="17" height="17" fill="currentColor" viewBox="0 0 17 17"><g fill="currentColor"><path d="M8.457 9.07c1.859 0 3.216-2.31 3.216-4.337s-1.44-3.67-3.216-3.67-3.216 1.643-3.216 3.67S6.598 9.07 8.457 9.07M9.999 16.673a.213.213 0 0 0 .179.327h6.608c.168 0 .27-.186.179-.328l-3.316-5.144a.212.212 0 0 0-.357 0z"/><path d="M8.457 10.346c1.468 0 2.62-.902 3.34-1.904a6 6 0 0 0 .432-.697l1.454.796-.197.325-4.525 7.07H2.338c-.1 0-.188-.071-.208-.17l-1.041-4.989a1.265 1.265 0 0 1 .64-1.367l2.975-1.63q.188.348.413.662c.72 1.002 1.872 1.904 3.34 1.904"/></g></svg>