<svg width="24" height="24" fill="currentColor" viewBox="0 0 24 24"><path fill="currentColor" d="M14.644 8.138a4.3 4.3 0 0 1-.618-2.179C14.026 4.325 15.19 3 16.625 3s2.599 1.325 2.599 2.96c0 .816-.275 1.69-.736 2.36-.462.67-1.112 1.136-1.863 1.136-.818 0-1.515-.551-1.98-1.318m-1.413 1.188c.654.95 1.8 1.932 3.394 1.932 1.593 0 2.74-.983 3.394-1.932q.177-.256.326-.535l1.212.662c.7.383 1.067 1.164.907 1.932l-.704 3.366a.3.3 0 0 1-.296.239h-6.982a3.6 3.6 0 0 0-1.243-1.117l-1.503-.82q.105-.546.106-1.094a5.1 5.1 0 0 0-.542-2.28q.148-.128.325-.226l1.264-.69q.156.293.342.563M4.845 11.96c0 .745.228 1.537.618 2.18.466.766 1.163 1.317 1.98 1.317.752 0 1.402-.466 1.863-1.136s.736-1.544.736-2.36C10.042 10.324 8.88 9 7.444 9s-2.599 1.325-2.599 2.96m2.599 5.299c-1.593 0-2.74-.983-3.394-1.932a6 6 0 0 1-.342-.563l-1.264.69a1.79 1.79 0 0 0-.907 1.932l.704 3.366c.03.139.153.239.296.239h9.746c.143 0 .267-.1.296-.24l.704-3.365a1.79 1.79 0 0 0-.907-1.932l-1.212-.662a6 6 0 0 1-.326.535c-.655.95-1.801 1.932-3.394 1.932"/></svg>