<svg width="16" height="16" fill="currentColor" viewBox="0 0 16 16"><g fill="currentColor"><path d="M1.2 5a.2.2 0 0 1-.2-.2V1.2c0-.11.09-.2.2-.2h3.6c.11 0 .2.09.2.2v1.2a.2.2 0 0 1-.2.2H2.6v2.2a.2.2 0 0 1-.2.2zM14.8 5a.2.2 0 0 0 .2-.2V1.2a.2.2 0 0 0-.2-.2h-3.6a.2.2 0 0 0-.2.2v1.2c0 .11.09.2.2.2h2.2v2.2c0 .11.09.2.2.2zM14.8 11c.11 0 .2.09.2.2v3.6a.2.2 0 0 1-.2.2h-3.6a.2.2 0 0 1-.2-.2v-1.2c0-.11.09-.2.2-.2h2.2v-2.2c0-.11.09-.2.2-.2zM4.8 15a.2.2 0 0 0 .2-.2v-1.2a.2.2 0 0 0-.2-.2H2.6v-2.2a.2.2 0 0 0-.2-.2H1.2a.2.2 0 0 0-.2.2v3.6c0 .11.09.2.2.2zM9.62 5.473c0 .496-.15 1.025-.41 1.453-.308.51-.77.878-1.313.878-.498 0-.929-.31-1.235-.757a2.88 2.88 0 0 1-.488-1.574c0-1.09.771-1.973 1.723-1.973s1.724.883 1.724 1.973"/><path d="M7.897 9.005c1.057 0 1.817-.655 2.251-1.288q.123-.18.227-.375l.838.46c.465.255.708.776.601 1.288l-.467 2.244a.2.2 0 0 1-.195.16H4.688a.2.2 0 0 1-.196-.16L4.025 9.09a1.19 1.19 0 0 1 .601-1.288l.804-.441q.099.186.216.356c.434.633 1.195 1.288 2.251 1.288"/></g></svg>