<svg width="16" height="16" fill="currentColor" viewBox="0 0 16 16"><path fill="currentColor" d="M9.763 5.426a2.9 2.9 0 0 1-.412-1.453c0-1.09.775-1.973 1.732-1.973s1.733.883 1.733 1.973c0 .544-.183 1.127-.491 1.574s-.741.757-1.242.757c-.545 0-1.01-.368-1.32-.878m-.942.791c.436.633 1.2 1.288 2.262 1.288s1.827-.655 2.263-1.288q.118-.17.217-.356l.808.441c.467.255.712.776.605 1.288l-.47 2.244a.2.2 0 0 1-.196.16H9.654a2.4 2.4 0 0 0-.828-.745l-1.002-.547q.07-.364.071-.73c0-.528-.128-1.053-.362-1.52a1.2 1.2 0 0 1 .217-.15l.843-.46q.104.196.228.375M3.23 7.973c0 .496.151 1.025.411 1.453.31.51.776.878 1.32.878.501 0 .934-.31 1.242-.757s.491-1.03.491-1.574C6.695 6.883 5.919 6 4.963 6c-.957 0-1.733.883-1.733 1.973m1.732 3.532c-1.063 0-1.827-.655-2.263-1.288a4 4 0 0 1-.228-.375l-.842.46a1.19 1.19 0 0 0-.605 1.288l.47 2.244a.2.2 0 0 0 .196.16H8.19a.2.2 0 0 0 .197-.16l.47-2.244a1.19 1.19 0 0 0-.606-1.288l-.807-.441a4 4 0 0 1-.218.356c-.436.633-1.2 1.288-2.262 1.288"/></svg>